<svg xmlns="http://www.w3.org/2000/svg" viewBox="0 0 132.38 86.52"><defs><style>.cls-1{fill:#318cd3;}.cls-2{fill:#55007c;}.cls-3,.cls-6{fill:#8612ad;}.cls-4{fill:#70bde8;}.cls-5{fill:#fff;}.cls-6{opacity:0.5;}</style></defs><g id="Camada_2" data-name="Camada 2"><g id="OBJECTS"><polygon class="cls-1" points="70.14 0 95.76 0 132.38 43.26 95.76 86.52 70.14 86.52 106.76 43.26 70.14 0"/><polygon class="cls-2" points="62.24 0 36.62 0 0 43.26 36.62 86.52 62.24 86.52 25.62 43.26 62.24 0"/><polygon class="cls-3" points="36.62 0 62.24 0 13.01 58.63 0 43.26 36.62 0"/><polygon class="cls-4" points="70.14 86.52 119.4 27.92 132.38 43.26 95.76 86.52 70.14 86.52"/><polygon class="cls-5" points="95.76 0 62.44 86.52 36.84 86.52 70.16 0 95.76 0"/><polygon class="cls-6" points="95.76 0 62.44 86.52 36.84 86.52 70.16 0 95.76 0"/></g></g></svg>